<mxfile host="app.diagrams.net" agent="Mozilla/5.0 (Windows NT 10.0; Win64; x64) AppleWebKit/537.36 (KHTML, like Gecko) Chrome/129.0.0.0 Safari/537.36" version="24.7.17">
  <diagram id="R2lEEEUBdFMjLlhIrx00" name="Page-1">
    <mxGraphModel dx="3315" dy="875" grid="1" gridSize="10" guides="1" tooltips="1" connect="1" arrows="1" fold="1" page="1" pageScale="1" pageWidth="850" pageHeight="1100" math="0" shadow="0" extFonts="Permanent Marker^https://fonts.googleapis.com/css?family=Permanent+Marker">
      <root>
        <mxCell id="0" />
        <mxCell id="1" parent="0" />
        <mxCell id="0kiR9jbJNJa0701qoFY2-14" style="edgeStyle=none;shape=link;rounded=0;orthogonalLoop=1;jettySize=auto;html=1;exitX=1;exitY=0.5;exitDx=0;exitDy=0;" edge="1" parent="1" source="0kiR9jbJNJa0701qoFY2-5">
          <mxGeometry relative="1" as="geometry">
            <mxPoint x="-770" y="42" as="targetPoint" />
          </mxGeometry>
        </mxCell>
        <mxCell id="0kiR9jbJNJa0701qoFY2-20" style="edgeStyle=none;shape=link;rounded=0;orthogonalLoop=1;jettySize=auto;html=1;exitX=0.5;exitY=1;exitDx=0;exitDy=0;" edge="1" parent="1" source="0kiR9jbJNJa0701qoFY2-5" target="0kiR9jbJNJa0701qoFY2-19">
          <mxGeometry relative="1" as="geometry" />
        </mxCell>
        <mxCell id="0kiR9jbJNJa0701qoFY2-26" style="edgeStyle=none;shape=link;rounded=0;orthogonalLoop=1;jettySize=auto;html=1;exitX=1;exitY=1;exitDx=0;exitDy=0;" edge="1" parent="1" source="0kiR9jbJNJa0701qoFY2-5" target="0kiR9jbJNJa0701qoFY2-25">
          <mxGeometry relative="1" as="geometry" />
        </mxCell>
        <mxCell id="0kiR9jbJNJa0701qoFY2-5" value="&lt;b&gt;PUNTO VENDITA&lt;/b&gt;" style="rounded=0;whiteSpace=wrap;html=1;" vertex="1" parent="1">
          <mxGeometry x="-960" y="12" width="120" height="60" as="geometry" />
        </mxCell>
        <mxCell id="0kiR9jbJNJa0701qoFY2-6" value="&lt;b&gt;PRODOTTO&lt;/b&gt;" style="rounded=0;whiteSpace=wrap;html=1;" vertex="1" parent="1">
          <mxGeometry x="-580" y="12" width="120" height="60" as="geometry" />
        </mxCell>
        <mxCell id="0kiR9jbJNJa0701qoFY2-15" style="edgeStyle=none;shape=link;rounded=0;orthogonalLoop=1;jettySize=auto;html=1;exitX=1;exitY=0.5;exitDx=0;exitDy=0;" edge="1" parent="1" target="0kiR9jbJNJa0701qoFY2-6">
          <mxGeometry relative="1" as="geometry">
            <mxPoint x="-650" y="42" as="sourcePoint" />
          </mxGeometry>
        </mxCell>
        <mxCell id="0kiR9jbJNJa0701qoFY2-16" value="(0,N)" style="text;html=1;align=center;verticalAlign=middle;resizable=0;points=[];autosize=1;strokeColor=none;fillColor=none;" vertex="1" parent="1">
          <mxGeometry x="-845" y="10" width="50" height="30" as="geometry" />
        </mxCell>
        <mxCell id="0kiR9jbJNJa0701qoFY2-17" value="(0,N)" style="text;html=1;align=center;verticalAlign=middle;resizable=0;points=[];autosize=1;strokeColor=none;fillColor=none;" vertex="1" parent="1">
          <mxGeometry x="-625" y="10" width="50" height="30" as="geometry" />
        </mxCell>
        <mxCell id="0kiR9jbJNJa0701qoFY2-48" style="edgeStyle=none;rounded=0;orthogonalLoop=1;jettySize=auto;html=1;exitX=0.75;exitY=1;exitDx=0;exitDy=0;" edge="1" parent="1" source="0kiR9jbJNJa0701qoFY2-18" target="0kiR9jbJNJa0701qoFY2-46">
          <mxGeometry relative="1" as="geometry" />
        </mxCell>
        <mxCell id="0kiR9jbJNJa0701qoFY2-18" value="&lt;b&gt;DIPENDENTE&lt;/b&gt;" style="rounded=0;whiteSpace=wrap;html=1;" vertex="1" parent="1">
          <mxGeometry x="-960" y="200" width="120" height="60" as="geometry" />
        </mxCell>
        <mxCell id="0kiR9jbJNJa0701qoFY2-21" value="" style="edgeStyle=none;shape=link;rounded=0;orthogonalLoop=1;jettySize=auto;html=1;" edge="1" parent="1" source="0kiR9jbJNJa0701qoFY2-19" target="0kiR9jbJNJa0701qoFY2-18">
          <mxGeometry relative="1" as="geometry" />
        </mxCell>
        <mxCell id="0kiR9jbJNJa0701qoFY2-19" value="&lt;b&gt;AVERE&lt;/b&gt;" style="shape=rhombus;perimeter=rhombusPerimeter;whiteSpace=wrap;html=1;align=center;" vertex="1" parent="1">
          <mxGeometry x="-960" y="112" width="120" height="60" as="geometry" />
        </mxCell>
        <mxCell id="0kiR9jbJNJa0701qoFY2-22" value="(1,N)" style="text;html=1;align=center;verticalAlign=middle;resizable=0;points=[];autosize=1;strokeColor=none;fillColor=none;" vertex="1" parent="1">
          <mxGeometry x="-945" y="72" width="50" height="30" as="geometry" />
        </mxCell>
        <mxCell id="0kiR9jbJNJa0701qoFY2-23" value="(1,1)" style="text;html=1;align=center;verticalAlign=middle;resizable=0;points=[];autosize=1;strokeColor=none;fillColor=none;" vertex="1" parent="1">
          <mxGeometry x="-945" y="170" width="50" height="30" as="geometry" />
        </mxCell>
        <mxCell id="0kiR9jbJNJa0701qoFY2-51" style="edgeStyle=none;rounded=0;orthogonalLoop=1;jettySize=auto;html=1;exitX=0.25;exitY=1;exitDx=0;exitDy=0;entryX=0.5;entryY=0;entryDx=0;entryDy=0;" edge="1" parent="1" source="0kiR9jbJNJa0701qoFY2-24" target="0kiR9jbJNJa0701qoFY2-49">
          <mxGeometry relative="1" as="geometry" />
        </mxCell>
        <mxCell id="0kiR9jbJNJa0701qoFY2-52" style="edgeStyle=none;rounded=0;orthogonalLoop=1;jettySize=auto;html=1;exitX=0.75;exitY=1;exitDx=0;exitDy=0;" edge="1" parent="1" source="0kiR9jbJNJa0701qoFY2-24" target="0kiR9jbJNJa0701qoFY2-50">
          <mxGeometry relative="1" as="geometry" />
        </mxCell>
        <mxCell id="0kiR9jbJNJa0701qoFY2-24" value="&lt;b&gt;RESPONSABILE&lt;/b&gt;" style="rounded=0;whiteSpace=wrap;html=1;" vertex="1" parent="1">
          <mxGeometry x="-580" y="100" width="120" height="60" as="geometry" />
        </mxCell>
        <mxCell id="0kiR9jbJNJa0701qoFY2-93" style="edgeStyle=none;shape=link;rounded=0;orthogonalLoop=1;jettySize=auto;html=1;exitX=1;exitY=0.5;exitDx=0;exitDy=0;" edge="1" parent="1" source="0kiR9jbJNJa0701qoFY2-25" target="0kiR9jbJNJa0701qoFY2-24">
          <mxGeometry relative="1" as="geometry" />
        </mxCell>
        <mxCell id="0kiR9jbJNJa0701qoFY2-25" value="&lt;b&gt;COORDINARE&lt;/b&gt;" style="shape=rhombus;perimeter=rhombusPerimeter;whiteSpace=wrap;html=1;align=center;" vertex="1" parent="1">
          <mxGeometry x="-815" y="102" width="120" height="60" as="geometry" />
        </mxCell>
        <mxCell id="0kiR9jbJNJa0701qoFY2-28" value="(1,1)" style="text;html=1;align=center;verticalAlign=middle;resizable=0;points=[];autosize=1;strokeColor=none;fillColor=none;" vertex="1" parent="1">
          <mxGeometry x="-845" y="52" width="50" height="30" as="geometry" />
        </mxCell>
        <mxCell id="0kiR9jbJNJa0701qoFY2-29" value="(1,N)" style="text;html=1;align=center;verticalAlign=middle;resizable=0;points=[];autosize=1;strokeColor=none;fillColor=none;" vertex="1" parent="1">
          <mxGeometry x="-625" y="102" width="50" height="30" as="geometry" />
        </mxCell>
        <mxCell id="0kiR9jbJNJa0701qoFY2-30" value="&lt;b&gt;MAGAZZINO&lt;/b&gt;" style="rounded=0;whiteSpace=wrap;html=1;" vertex="1" parent="1">
          <mxGeometry x="40" y="12" width="120" height="60" as="geometry" />
        </mxCell>
        <mxCell id="0kiR9jbJNJa0701qoFY2-32" value="" style="edgeStyle=none;shape=link;rounded=0;orthogonalLoop=1;jettySize=auto;html=1;" edge="1" parent="1" source="0kiR9jbJNJa0701qoFY2-31" target="0kiR9jbJNJa0701qoFY2-6">
          <mxGeometry relative="1" as="geometry" />
        </mxCell>
        <mxCell id="0kiR9jbJNJa0701qoFY2-33" value="" style="edgeStyle=none;shape=link;rounded=0;orthogonalLoop=1;jettySize=auto;html=1;" edge="1" parent="1" source="0kiR9jbJNJa0701qoFY2-31" target="0kiR9jbJNJa0701qoFY2-30">
          <mxGeometry relative="1" as="geometry" />
        </mxCell>
        <mxCell id="0kiR9jbJNJa0701qoFY2-31" value="&lt;b&gt;IN&amp;nbsp;&lt;/b&gt;&lt;div&gt;&lt;b&gt;MAGAZZINO&lt;/b&gt;&lt;/div&gt;" style="shape=rhombus;perimeter=rhombusPerimeter;whiteSpace=wrap;html=1;align=center;" vertex="1" parent="1">
          <mxGeometry x="-280" y="12" width="120" height="60" as="geometry" />
        </mxCell>
        <mxCell id="0kiR9jbJNJa0701qoFY2-34" value="(0,N)" style="text;html=1;align=center;verticalAlign=middle;resizable=0;points=[];autosize=1;strokeColor=none;fillColor=none;" vertex="1" parent="1">
          <mxGeometry x="-470" y="12" width="50" height="30" as="geometry" />
        </mxCell>
        <mxCell id="0kiR9jbJNJa0701qoFY2-35" value="(0,N)" style="text;html=1;align=center;verticalAlign=middle;resizable=0;points=[];autosize=1;strokeColor=none;fillColor=none;" vertex="1" parent="1">
          <mxGeometry x="-10" y="12" width="50" height="30" as="geometry" />
        </mxCell>
        <mxCell id="0kiR9jbJNJa0701qoFY2-36" value="&lt;b&gt;VENDITA&lt;/b&gt;" style="shape=rhombus;perimeter=rhombusPerimeter;whiteSpace=wrap;html=1;align=center;" vertex="1" parent="1">
          <mxGeometry x="-770" y="12" width="125" height="60" as="geometry" />
        </mxCell>
        <mxCell id="0kiR9jbJNJa0701qoFY2-38" value="&lt;b&gt;PUNTO VENDITA&lt;/b&gt;" style="rounded=0;whiteSpace=wrap;html=1;" vertex="1" parent="1">
          <mxGeometry x="40" y="210" width="120" height="60" as="geometry" />
        </mxCell>
        <mxCell id="0kiR9jbJNJa0701qoFY2-40" value="" style="edgeStyle=none;shape=link;rounded=0;orthogonalLoop=1;jettySize=auto;html=1;" edge="1" parent="1" source="0kiR9jbJNJa0701qoFY2-39" target="0kiR9jbJNJa0701qoFY2-30">
          <mxGeometry relative="1" as="geometry" />
        </mxCell>
        <mxCell id="0kiR9jbJNJa0701qoFY2-41" value="" style="edgeStyle=none;shape=link;rounded=0;orthogonalLoop=1;jettySize=auto;html=1;" edge="1" parent="1" source="0kiR9jbJNJa0701qoFY2-39" target="0kiR9jbJNJa0701qoFY2-38">
          <mxGeometry relative="1" as="geometry" />
        </mxCell>
        <mxCell id="0kiR9jbJNJa0701qoFY2-39" value="&lt;b&gt;POSSEDERE&lt;/b&gt;" style="shape=rhombus;perimeter=rhombusPerimeter;whiteSpace=wrap;html=1;align=center;" vertex="1" parent="1">
          <mxGeometry x="40" y="112" width="120" height="60" as="geometry" />
        </mxCell>
        <mxCell id="0kiR9jbJNJa0701qoFY2-42" value="(1,1)" style="text;html=1;align=center;verticalAlign=middle;resizable=0;points=[];autosize=1;strokeColor=none;fillColor=none;" vertex="1" parent="1">
          <mxGeometry x="110" y="180" width="50" height="30" as="geometry" />
        </mxCell>
        <mxCell id="0kiR9jbJNJa0701qoFY2-44" value="(1,1)" style="text;html=1;align=center;verticalAlign=middle;resizable=0;points=[];autosize=1;strokeColor=none;fillColor=none;" vertex="1" parent="1">
          <mxGeometry x="100" y="70" width="50" height="30" as="geometry" />
        </mxCell>
        <mxCell id="0kiR9jbJNJa0701qoFY2-57" value="" style="edgeStyle=none;shape=link;rounded=0;orthogonalLoop=1;jettySize=auto;html=1;" edge="1" parent="1" source="0kiR9jbJNJa0701qoFY2-45" target="0kiR9jbJNJa0701qoFY2-54">
          <mxGeometry relative="1" as="geometry" />
        </mxCell>
        <mxCell id="0kiR9jbJNJa0701qoFY2-45" value="&lt;b&gt;ADDETTO&lt;/b&gt;&lt;div&gt;&lt;b&gt;VENDITA&lt;/b&gt;&lt;/div&gt;" style="rounded=0;whiteSpace=wrap;html=1;" vertex="1" parent="1">
          <mxGeometry x="-1030" y="292" width="100" height="40" as="geometry" />
        </mxCell>
        <mxCell id="0kiR9jbJNJa0701qoFY2-46" value="&lt;b&gt;GESTORE&lt;/b&gt;" style="rounded=0;whiteSpace=wrap;html=1;" vertex="1" parent="1">
          <mxGeometry x="-840" y="292" width="100" height="40" as="geometry" />
        </mxCell>
        <mxCell id="0kiR9jbJNJa0701qoFY2-47" style="edgeStyle=none;rounded=0;orthogonalLoop=1;jettySize=auto;html=1;exitX=0.25;exitY=1;exitDx=0;exitDy=0;entryX=0.58;entryY=0.005;entryDx=0;entryDy=0;entryPerimeter=0;" edge="1" parent="1" source="0kiR9jbJNJa0701qoFY2-18" target="0kiR9jbJNJa0701qoFY2-45">
          <mxGeometry relative="1" as="geometry" />
        </mxCell>
        <mxCell id="0kiR9jbJNJa0701qoFY2-109" style="edgeStyle=none;shape=link;rounded=0;orthogonalLoop=1;jettySize=auto;html=1;exitX=0.75;exitY=1;exitDx=0;exitDy=0;entryX=0;entryY=0;entryDx=0;entryDy=0;" edge="1" parent="1" source="0kiR9jbJNJa0701qoFY2-49" target="0kiR9jbJNJa0701qoFY2-108">
          <mxGeometry relative="1" as="geometry" />
        </mxCell>
        <mxCell id="0kiR9jbJNJa0701qoFY2-49" value="&lt;b&gt;CAPO&lt;/b&gt;&lt;div&gt;&lt;b&gt;DIVISIONE&lt;/b&gt;&lt;/div&gt;" style="rounded=0;whiteSpace=wrap;html=1;" vertex="1" parent="1">
          <mxGeometry x="-705" y="200" width="100" height="40" as="geometry" />
        </mxCell>
        <mxCell id="0kiR9jbJNJa0701qoFY2-126" style="edgeStyle=none;shape=link;rounded=0;orthogonalLoop=1;jettySize=auto;html=1;exitX=1;exitY=0.5;exitDx=0;exitDy=0;" edge="1" parent="1" source="0kiR9jbJNJa0701qoFY2-50" target="0kiR9jbJNJa0701qoFY2-122">
          <mxGeometry relative="1" as="geometry" />
        </mxCell>
        <mxCell id="0kiR9jbJNJa0701qoFY2-50" value="&lt;b&gt;ISPETTORE&lt;/b&gt;" style="rounded=0;whiteSpace=wrap;html=1;" vertex="1" parent="1">
          <mxGeometry x="-420" y="200" width="100" height="40" as="geometry" />
        </mxCell>
        <mxCell id="0kiR9jbJNJa0701qoFY2-63" value="" style="edgeStyle=none;shape=link;rounded=0;orthogonalLoop=1;jettySize=auto;html=1;" edge="1" parent="1" source="0kiR9jbJNJa0701qoFY2-53" target="0kiR9jbJNJa0701qoFY2-61">
          <mxGeometry relative="1" as="geometry" />
        </mxCell>
        <mxCell id="0kiR9jbJNJa0701qoFY2-53" value="&lt;b&gt;RESO&lt;/b&gt;" style="whiteSpace=wrap;html=1;" vertex="1" parent="1">
          <mxGeometry x="-1040" y="460" width="120" height="60" as="geometry" />
        </mxCell>
        <mxCell id="0kiR9jbJNJa0701qoFY2-58" value="" style="edgeStyle=none;shape=link;rounded=0;orthogonalLoop=1;jettySize=auto;html=1;" edge="1" parent="1" source="0kiR9jbJNJa0701qoFY2-54" target="0kiR9jbJNJa0701qoFY2-53">
          <mxGeometry relative="1" as="geometry" />
        </mxCell>
        <mxCell id="0kiR9jbJNJa0701qoFY2-54" value="&lt;b&gt;CORRISPONDERE&lt;/b&gt;" style="shape=rhombus;perimeter=rhombusPerimeter;whiteSpace=wrap;html=1;align=center;" vertex="1" parent="1">
          <mxGeometry x="-1040" y="360" width="120" height="60" as="geometry" />
        </mxCell>
        <mxCell id="0kiR9jbJNJa0701qoFY2-59" value="(1,1)" style="text;html=1;align=center;verticalAlign=middle;resizable=0;points=[];autosize=1;strokeColor=none;fillColor=none;" vertex="1" parent="1">
          <mxGeometry x="-1025" y="408" width="50" height="30" as="geometry" />
        </mxCell>
        <mxCell id="0kiR9jbJNJa0701qoFY2-60" value="(0,N)" style="text;html=1;align=center;verticalAlign=middle;resizable=0;points=[];autosize=1;strokeColor=none;fillColor=none;" vertex="1" parent="1">
          <mxGeometry x="-1025" y="328" width="50" height="30" as="geometry" />
        </mxCell>
        <mxCell id="0kiR9jbJNJa0701qoFY2-64" value="" style="edgeStyle=none;shape=link;rounded=0;orthogonalLoop=1;jettySize=auto;html=1;" edge="1" parent="1" source="0kiR9jbJNJa0701qoFY2-61" target="0kiR9jbJNJa0701qoFY2-62">
          <mxGeometry relative="1" as="geometry" />
        </mxCell>
        <mxCell id="0kiR9jbJNJa0701qoFY2-61" value="&lt;b&gt;IN RESO&lt;/b&gt;" style="shape=rhombus;perimeter=rhombusPerimeter;whiteSpace=wrap;html=1;align=center;" vertex="1" parent="1">
          <mxGeometry x="-1040" y="575" width="120" height="60" as="geometry" />
        </mxCell>
        <mxCell id="0kiR9jbJNJa0701qoFY2-62" value="&lt;b&gt;PRODOTTO&lt;/b&gt;" style="whiteSpace=wrap;html=1;" vertex="1" parent="1">
          <mxGeometry x="-825" y="575" width="120" height="60" as="geometry" />
        </mxCell>
        <mxCell id="0kiR9jbJNJa0701qoFY2-65" value="(0,N)" style="text;html=1;align=center;verticalAlign=middle;resizable=0;points=[];autosize=1;strokeColor=none;fillColor=none;" vertex="1" parent="1">
          <mxGeometry x="-980" y="550" width="50" height="30" as="geometry" />
        </mxCell>
        <mxCell id="0kiR9jbJNJa0701qoFY2-66" value="(0,N)" style="text;html=1;align=center;verticalAlign=middle;resizable=0;points=[];autosize=1;strokeColor=none;fillColor=none;" vertex="1" parent="1">
          <mxGeometry x="-865" y="575" width="50" height="30" as="geometry" />
        </mxCell>
        <mxCell id="0kiR9jbJNJa0701qoFY2-67" value="&lt;b&gt;ORDINE&lt;/b&gt;" style="whiteSpace=wrap;html=1;" vertex="1" parent="1">
          <mxGeometry x="-670" y="360" width="120" height="60" as="geometry" />
        </mxCell>
        <mxCell id="0kiR9jbJNJa0701qoFY2-69" value="" style="edgeStyle=none;shape=link;rounded=0;orthogonalLoop=1;jettySize=auto;html=1;" edge="1" parent="1" source="0kiR9jbJNJa0701qoFY2-68" target="0kiR9jbJNJa0701qoFY2-46">
          <mxGeometry relative="1" as="geometry" />
        </mxCell>
        <mxCell id="0kiR9jbJNJa0701qoFY2-70" value="" style="edgeStyle=none;shape=link;rounded=0;orthogonalLoop=1;jettySize=auto;html=1;" edge="1" parent="1" source="0kiR9jbJNJa0701qoFY2-68" target="0kiR9jbJNJa0701qoFY2-67">
          <mxGeometry relative="1" as="geometry" />
        </mxCell>
        <mxCell id="0kiR9jbJNJa0701qoFY2-68" value="&lt;b&gt;EFFETTUARE&lt;/b&gt;" style="shape=rhombus;perimeter=rhombusPerimeter;whiteSpace=wrap;html=1;align=center;" vertex="1" parent="1">
          <mxGeometry x="-850" y="360" width="120" height="60" as="geometry" />
        </mxCell>
        <mxCell id="0kiR9jbJNJa0701qoFY2-71" value="(0,N)" style="text;html=1;align=center;verticalAlign=middle;resizable=0;points=[];autosize=1;strokeColor=none;fillColor=none;" vertex="1" parent="1">
          <mxGeometry x="-795" y="330" width="50" height="30" as="geometry" />
        </mxCell>
        <mxCell id="0kiR9jbJNJa0701qoFY2-72" value="(1,1)" style="text;html=1;align=center;verticalAlign=middle;resizable=0;points=[];autosize=1;strokeColor=none;fillColor=none;" vertex="1" parent="1">
          <mxGeometry x="-710" y="360" width="50" height="30" as="geometry" />
        </mxCell>
        <mxCell id="0kiR9jbJNJa0701qoFY2-74" style="edgeStyle=none;shape=link;rounded=0;orthogonalLoop=1;jettySize=auto;html=1;exitX=0.5;exitY=0;exitDx=0;exitDy=0;" edge="1" parent="1" source="0kiR9jbJNJa0701qoFY2-73" target="0kiR9jbJNJa0701qoFY2-67">
          <mxGeometry relative="1" as="geometry" />
        </mxCell>
        <mxCell id="0kiR9jbJNJa0701qoFY2-75" style="edgeStyle=none;shape=link;rounded=0;orthogonalLoop=1;jettySize=auto;html=1;exitX=0.5;exitY=1;exitDx=0;exitDy=0;" edge="1" parent="1" source="0kiR9jbJNJa0701qoFY2-73" target="0kiR9jbJNJa0701qoFY2-62">
          <mxGeometry relative="1" as="geometry" />
        </mxCell>
        <mxCell id="0kiR9jbJNJa0701qoFY2-73" value="&lt;b&gt;COMPRENDERE&lt;/b&gt;" style="shape=rhombus;perimeter=rhombusPerimeter;whiteSpace=wrap;html=1;align=center;" vertex="1" parent="1">
          <mxGeometry x="-825" y="463" width="120" height="60" as="geometry" />
        </mxCell>
        <mxCell id="0kiR9jbJNJa0701qoFY2-76" value="(1,N)" style="text;html=1;align=center;verticalAlign=middle;resizable=0;points=[];autosize=1;strokeColor=none;fillColor=none;" vertex="1" parent="1">
          <mxGeometry x="-695" y="420" width="50" height="30" as="geometry" />
        </mxCell>
        <mxCell id="0kiR9jbJNJa0701qoFY2-77" value="(0,N)" style="text;html=1;align=center;verticalAlign=middle;resizable=0;points=[];autosize=1;strokeColor=none;fillColor=none;" vertex="1" parent="1">
          <mxGeometry x="-770" y="545" width="50" height="30" as="geometry" />
        </mxCell>
        <mxCell id="0kiR9jbJNJa0701qoFY2-78" value="&lt;b&gt;DEPOSITO&lt;/b&gt;" style="whiteSpace=wrap;html=1;" vertex="1" parent="1">
          <mxGeometry x="-490" y="575" width="120" height="60" as="geometry" />
        </mxCell>
        <mxCell id="0kiR9jbJNJa0701qoFY2-82" style="edgeStyle=none;shape=link;rounded=0;orthogonalLoop=1;jettySize=auto;html=1;exitX=0.5;exitY=1;exitDx=0;exitDy=0;entryX=0.5;entryY=0;entryDx=0;entryDy=0;" edge="1" parent="1" source="0kiR9jbJNJa0701qoFY2-80" target="0kiR9jbJNJa0701qoFY2-78">
          <mxGeometry relative="1" as="geometry" />
        </mxCell>
        <mxCell id="0kiR9jbJNJa0701qoFY2-83" style="edgeStyle=none;shape=link;rounded=0;orthogonalLoop=1;jettySize=auto;html=1;exitX=0;exitY=0;exitDx=0;exitDy=0;entryX=1;entryY=1;entryDx=0;entryDy=0;" edge="1" parent="1" source="0kiR9jbJNJa0701qoFY2-80" target="0kiR9jbJNJa0701qoFY2-67">
          <mxGeometry relative="1" as="geometry" />
        </mxCell>
        <mxCell id="0kiR9jbJNJa0701qoFY2-80" value="&lt;b&gt;PREPARARE&lt;/b&gt;" style="shape=rhombus;perimeter=rhombusPerimeter;whiteSpace=wrap;html=1;align=center;" vertex="1" parent="1">
          <mxGeometry x="-490" y="438" width="120" height="60" as="geometry" />
        </mxCell>
        <mxCell id="0kiR9jbJNJa0701qoFY2-84" value="(1,1)" style="text;html=1;align=center;verticalAlign=middle;resizable=0;points=[];autosize=1;strokeColor=none;fillColor=none;" vertex="1" parent="1">
          <mxGeometry x="-545" y="400" width="50" height="30" as="geometry" />
        </mxCell>
        <mxCell id="0kiR9jbJNJa0701qoFY2-85" value="(0,N)" style="text;html=1;align=center;verticalAlign=middle;resizable=0;points=[];autosize=1;strokeColor=none;fillColor=none;" vertex="1" parent="1">
          <mxGeometry x="-435" y="545" width="50" height="30" as="geometry" />
        </mxCell>
        <mxCell id="0kiR9jbJNJa0701qoFY2-86" value="&lt;b&gt;CONSEGNARE&lt;/b&gt;" style="shape=rhombus;perimeter=rhombusPerimeter;whiteSpace=wrap;html=1;align=center;" vertex="1" parent="1">
          <mxGeometry x="-660" y="470" width="120" height="60" as="geometry" />
        </mxCell>
        <mxCell id="0kiR9jbJNJa0701qoFY2-87" style="edgeStyle=none;shape=link;rounded=0;orthogonalLoop=1;jettySize=auto;html=1;exitX=0.5;exitY=0;exitDx=0;exitDy=0;entryX=0.581;entryY=0.933;entryDx=0;entryDy=0;entryPerimeter=0;" edge="1" parent="1" source="0kiR9jbJNJa0701qoFY2-86" target="0kiR9jbJNJa0701qoFY2-67">
          <mxGeometry relative="1" as="geometry" />
        </mxCell>
        <mxCell id="0kiR9jbJNJa0701qoFY2-89" style="edgeStyle=none;shape=link;rounded=0;orthogonalLoop=1;jettySize=auto;html=1;exitX=0.5;exitY=0;exitDx=0;exitDy=0;entryX=0.5;entryY=1;entryDx=0;entryDy=0;" edge="1" parent="1" source="0kiR9jbJNJa0701qoFY2-88" target="0kiR9jbJNJa0701qoFY2-86">
          <mxGeometry relative="1" as="geometry" />
        </mxCell>
        <mxCell id="0kiR9jbJNJa0701qoFY2-88" value="&lt;b&gt;CAMIONISTA&lt;/b&gt;" style="whiteSpace=wrap;html=1;" vertex="1" parent="1">
          <mxGeometry x="-660" y="590" width="120" height="60" as="geometry" />
        </mxCell>
        <mxCell id="0kiR9jbJNJa0701qoFY2-90" value="(0,N)" style="text;html=1;align=center;verticalAlign=middle;resizable=0;points=[];autosize=1;strokeColor=none;fillColor=none;" vertex="1" parent="1">
          <mxGeometry x="-600" y="560" width="50" height="30" as="geometry" />
        </mxCell>
        <mxCell id="0kiR9jbJNJa0701qoFY2-91" value="(1,1)" style="text;html=1;align=center;verticalAlign=middle;resizable=0;points=[];autosize=1;strokeColor=none;fillColor=none;" vertex="1" parent="1">
          <mxGeometry x="-610" y="420" width="50" height="30" as="geometry" />
        </mxCell>
        <mxCell id="0kiR9jbJNJa0701qoFY2-94" value="&lt;b&gt;RESO&lt;/b&gt;" style="whiteSpace=wrap;html=1;" vertex="1" parent="1">
          <mxGeometry x="-70" y="575" width="120" height="60" as="geometry" />
        </mxCell>
        <mxCell id="0kiR9jbJNJa0701qoFY2-99" value="" style="edgeStyle=none;shape=link;rounded=0;orthogonalLoop=1;jettySize=auto;html=1;" edge="1" parent="1" source="0kiR9jbJNJa0701qoFY2-95" target="0kiR9jbJNJa0701qoFY2-94">
          <mxGeometry relative="1" as="geometry" />
        </mxCell>
        <mxCell id="0kiR9jbJNJa0701qoFY2-115" style="edgeStyle=none;shape=link;rounded=0;orthogonalLoop=1;jettySize=auto;html=1;exitX=0;exitY=0.5;exitDx=0;exitDy=0;entryX=1;entryY=0.5;entryDx=0;entryDy=0;" edge="1" parent="1" source="0kiR9jbJNJa0701qoFY2-95" target="0kiR9jbJNJa0701qoFY2-78">
          <mxGeometry relative="1" as="geometry" />
        </mxCell>
        <mxCell id="0kiR9jbJNJa0701qoFY2-95" value="&lt;b&gt;RICEVERE&lt;/b&gt;" style="shape=rhombus;perimeter=rhombusPerimeter;whiteSpace=wrap;html=1;align=center;" vertex="1" parent="1">
          <mxGeometry x="-270" y="575" width="120" height="60" as="geometry" />
        </mxCell>
        <mxCell id="0kiR9jbJNJa0701qoFY2-100" value="(0,N)" style="text;html=1;align=center;verticalAlign=middle;resizable=0;points=[];autosize=1;strokeColor=none;fillColor=none;" vertex="1" parent="1">
          <mxGeometry x="-370" y="605" width="50" height="30" as="geometry" />
        </mxCell>
        <mxCell id="0kiR9jbJNJa0701qoFY2-101" value="(1,1)" style="text;html=1;align=center;verticalAlign=middle;resizable=0;points=[];autosize=1;strokeColor=none;fillColor=none;" vertex="1" parent="1">
          <mxGeometry x="-120" y="605" width="50" height="30" as="geometry" />
        </mxCell>
        <mxCell id="0kiR9jbJNJa0701qoFY2-118" style="edgeStyle=none;shape=link;rounded=0;orthogonalLoop=1;jettySize=auto;html=1;exitX=1;exitY=0.5;exitDx=0;exitDy=0;" edge="1" parent="1" source="0kiR9jbJNJa0701qoFY2-102" target="0kiR9jbJNJa0701qoFY2-117">
          <mxGeometry relative="1" as="geometry" />
        </mxCell>
        <mxCell id="0kiR9jbJNJa0701qoFY2-102" value="&lt;b&gt;REPORT&lt;/b&gt;" style="whiteSpace=wrap;html=1;" vertex="1" parent="1">
          <mxGeometry x="-430" y="340" width="120" height="60" as="geometry" />
        </mxCell>
        <mxCell id="0kiR9jbJNJa0701qoFY2-104" style="edgeStyle=none;shape=link;rounded=0;orthogonalLoop=1;jettySize=auto;html=1;exitX=0.5;exitY=0;exitDx=0;exitDy=0;" edge="1" parent="1" source="0kiR9jbJNJa0701qoFY2-103" target="0kiR9jbJNJa0701qoFY2-50">
          <mxGeometry relative="1" as="geometry" />
        </mxCell>
        <mxCell id="0kiR9jbJNJa0701qoFY2-105" style="edgeStyle=none;shape=link;rounded=0;orthogonalLoop=1;jettySize=auto;html=1;exitX=0.5;exitY=1;exitDx=0;exitDy=0;" edge="1" parent="1" source="0kiR9jbJNJa0701qoFY2-103" target="0kiR9jbJNJa0701qoFY2-102">
          <mxGeometry relative="1" as="geometry" />
        </mxCell>
        <mxCell id="0kiR9jbJNJa0701qoFY2-103" value="&lt;b&gt;REDIGERE&lt;/b&gt;" style="shape=rhombus;perimeter=rhombusPerimeter;whiteSpace=wrap;html=1;align=center;" vertex="1" parent="1">
          <mxGeometry x="-430" y="260" width="120" height="60" as="geometry" />
        </mxCell>
        <mxCell id="0kiR9jbJNJa0701qoFY2-106" value="(1,1)" style="text;html=1;align=center;verticalAlign=middle;resizable=0;points=[];autosize=1;strokeColor=none;fillColor=none;" vertex="1" parent="1">
          <mxGeometry x="-420" y="310" width="50" height="30" as="geometry" />
        </mxCell>
        <mxCell id="0kiR9jbJNJa0701qoFY2-107" value="(0,N)" style="text;html=1;align=center;verticalAlign=middle;resizable=0;points=[];autosize=1;strokeColor=none;fillColor=none;" vertex="1" parent="1">
          <mxGeometry x="-425" y="238" width="50" height="30" as="geometry" />
        </mxCell>
        <mxCell id="0kiR9jbJNJa0701qoFY2-108" value="&lt;b&gt;VISIONARE&lt;/b&gt;" style="shape=rhombus;perimeter=rhombusPerimeter;whiteSpace=wrap;html=1;align=center;" vertex="1" parent="1">
          <mxGeometry x="-590" y="268" width="120" height="60" as="geometry" />
        </mxCell>
        <mxCell id="0kiR9jbJNJa0701qoFY2-110" style="edgeStyle=none;shape=link;rounded=0;orthogonalLoop=1;jettySize=auto;html=1;exitX=1;exitY=1;exitDx=0;exitDy=0;entryX=-0.019;entryY=0.378;entryDx=0;entryDy=0;entryPerimeter=0;" edge="1" parent="1" source="0kiR9jbJNJa0701qoFY2-108" target="0kiR9jbJNJa0701qoFY2-102">
          <mxGeometry relative="1" as="geometry" />
        </mxCell>
        <mxCell id="0kiR9jbJNJa0701qoFY2-112" value="(0,N)" style="text;html=1;align=center;verticalAlign=middle;resizable=0;points=[];autosize=1;strokeColor=none;fillColor=none;" vertex="1" parent="1">
          <mxGeometry x="-660" y="240" width="50" height="30" as="geometry" />
        </mxCell>
        <mxCell id="0kiR9jbJNJa0701qoFY2-113" value="(1,1)" style="text;html=1;align=center;verticalAlign=middle;resizable=0;points=[];autosize=1;strokeColor=none;fillColor=none;" vertex="1" parent="1">
          <mxGeometry x="-475" y="358" width="50" height="30" as="geometry" />
        </mxCell>
        <mxCell id="0kiR9jbJNJa0701qoFY2-130" value="" style="edgeStyle=none;shape=link;rounded=0;orthogonalLoop=1;jettySize=auto;html=1;" edge="1" parent="1" source="0kiR9jbJNJa0701qoFY2-116" target="0kiR9jbJNJa0701qoFY2-129">
          <mxGeometry relative="1" as="geometry" />
        </mxCell>
        <mxCell id="0kiR9jbJNJa0701qoFY2-116" value="&lt;b&gt;CONTROLLO&lt;/b&gt;" style="whiteSpace=wrap;html=1;" vertex="1" parent="1">
          <mxGeometry x="-110" y="340" width="120" height="60" as="geometry" />
        </mxCell>
        <mxCell id="0kiR9jbJNJa0701qoFY2-119" style="edgeStyle=none;shape=link;rounded=0;orthogonalLoop=1;jettySize=auto;html=1;exitX=1;exitY=0.5;exitDx=0;exitDy=0;entryX=0;entryY=0.5;entryDx=0;entryDy=0;" edge="1" parent="1" source="0kiR9jbJNJa0701qoFY2-117" target="0kiR9jbJNJa0701qoFY2-116">
          <mxGeometry relative="1" as="geometry" />
        </mxCell>
        <mxCell id="0kiR9jbJNJa0701qoFY2-117" value="&lt;b&gt;RELATIVO A&lt;/b&gt;" style="shape=rhombus;perimeter=rhombusPerimeter;whiteSpace=wrap;html=1;align=center;" vertex="1" parent="1">
          <mxGeometry x="-270" y="340" width="120" height="60" as="geometry" />
        </mxCell>
        <mxCell id="0kiR9jbJNJa0701qoFY2-120" value="(1,N)" style="text;html=1;align=center;verticalAlign=middle;resizable=0;points=[];autosize=1;strokeColor=none;fillColor=none;" vertex="1" parent="1">
          <mxGeometry x="-310" y="378" width="50" height="30" as="geometry" />
        </mxCell>
        <mxCell id="0kiR9jbJNJa0701qoFY2-121" value="(0,1)" style="text;html=1;align=center;verticalAlign=middle;resizable=0;points=[];autosize=1;strokeColor=none;fillColor=none;" vertex="1" parent="1">
          <mxGeometry x="-155" y="378" width="50" height="30" as="geometry" />
        </mxCell>
        <mxCell id="0kiR9jbJNJa0701qoFY2-125" style="edgeStyle=none;shape=link;rounded=0;orthogonalLoop=1;jettySize=auto;html=1;exitX=1;exitY=1;exitDx=0;exitDy=0;" edge="1" parent="1" source="0kiR9jbJNJa0701qoFY2-122" target="0kiR9jbJNJa0701qoFY2-116">
          <mxGeometry relative="1" as="geometry" />
        </mxCell>
        <mxCell id="0kiR9jbJNJa0701qoFY2-122" value="&lt;b&gt;COMPLETARE&lt;/b&gt;" style="shape=rhombus;perimeter=rhombusPerimeter;whiteSpace=wrap;html=1;align=center;" vertex="1" parent="1">
          <mxGeometry x="-240" y="240" width="120" height="60" as="geometry" />
        </mxCell>
        <mxCell id="0kiR9jbJNJa0701qoFY2-127" value="(0,N)" style="text;html=1;align=center;verticalAlign=middle;resizable=0;points=[];autosize=1;strokeColor=none;fillColor=none;" vertex="1" parent="1">
          <mxGeometry x="-310" y="198" width="50" height="30" as="geometry" />
        </mxCell>
        <mxCell id="0kiR9jbJNJa0701qoFY2-128" value="(1,1)" style="text;html=1;align=center;verticalAlign=middle;resizable=0;points=[];autosize=1;strokeColor=none;fillColor=none;" vertex="1" parent="1">
          <mxGeometry x="-105" y="308" width="50" height="30" as="geometry" />
        </mxCell>
        <mxCell id="0kiR9jbJNJa0701qoFY2-131" value="" style="edgeStyle=none;shape=link;rounded=0;orthogonalLoop=1;jettySize=auto;html=1;" edge="1" parent="1" source="0kiR9jbJNJa0701qoFY2-129" target="0kiR9jbJNJa0701qoFY2-38">
          <mxGeometry relative="1" as="geometry" />
        </mxCell>
        <mxCell id="0kiR9jbJNJa0701qoFY2-129" value="&lt;b&gt;SU&lt;/b&gt;" style="shape=rhombus;perimeter=rhombusPerimeter;whiteSpace=wrap;html=1;align=center;" vertex="1" parent="1">
          <mxGeometry x="40" y="338" width="120" height="60" as="geometry" />
        </mxCell>
        <mxCell id="0kiR9jbJNJa0701qoFY2-132" value="(1,1)" style="text;html=1;align=center;verticalAlign=middle;resizable=0;points=[];autosize=1;strokeColor=none;fillColor=none;" vertex="1" parent="1">
          <mxGeometry x="5" y="368" width="50" height="30" as="geometry" />
        </mxCell>
        <mxCell id="0kiR9jbJNJa0701qoFY2-133" value="(0,N)" style="text;html=1;align=center;verticalAlign=middle;resizable=0;points=[];autosize=1;strokeColor=none;fillColor=none;" vertex="1" parent="1">
          <mxGeometry x="55" y="268" width="50" height="30" as="geometry" />
        </mxCell>
      </root>
    </mxGraphModel>
  </diagram>
</mxfile>
